<svg xmlns="http://www.w3.org/2000/svg" viewBox="0 0 64 64">
  <circle cx="32" cy="32" r="30" fill="#f7931a"/>
  <path fill="#fff" d="M46.1 27.4c.6-3.9-2.4-6-6.4-7.4l1.3-5.3-3.2-.8-1.3 5.1c-.8-.2-1.7-.4-2.5-.6l1.3-5.2-3.2-.8-1.3 5.3c-.7-.2-1.4-.3-2-.5l-4.4-1.1-.9 3.4s2.4.5 2.3.6c1.3.3 1.5 1.2 1.5 1.9l-1.5 6c.1 0 .2 0 .3.1-.1 0-.2-.1-.3-.1l-2.1 8.4c-.2.4-.6 1.1-1.6.8 0 .1-2.3-.6-2.3-.6l-1.6 3.7 4.2 1c.8.2 1.5.4 2.3.6l-1.3 5.4 3.2.8 1.3-5.3c.9.2 1.7.5 2.5.7l-1.3 5.2 3.2.8 1.3-5.3c5.5 1 9.7.6 11.4-4.4 1.4-4-.1-6.3-3-7.8 2.1-.5 3.7-1.9 4.2-4.8zm-7.5 10.5c-1 4-7.8 1.8-10 1.3l1.8-7.2c2.2.5 9.3 1.6 8.2 5.9zm1-10.6c-.9 3.7-6.6 1.8-8.4 1.3l1.6-6.5c1.8.5 7.8 1.3 6.8 5.2z"/>
</svg>
